<svg width="512" height="512" viewBox="0 0 512 512" fill="none" xmlns="http://www.w3.org/2000/svg">
<g clip-path="url(#clip0_727_1553)">
<path d="M288 149.333C293.891 149.333 298.667 144.558 298.667 138.667C298.667 132.776 293.891 128 288 128C282.109 128 277.333 132.776 277.333 138.667C277.333 144.558 282.109 149.333 288 149.333Z" fill="#A855F7" stroke="#A855F7" stroke-width="42.6667" stroke-linecap="round" stroke-linejoin="round"/>
<path d="M373.333 234.667C379.224 234.667 384 229.891 384 224C384 218.109 379.224 213.333 373.333 213.333C367.442 213.333 362.667 218.109 362.667 224C362.667 229.891 367.442 234.667 373.333 234.667Z" fill="#EF4444" stroke="#EF4444" stroke-width="42.6667" stroke-linecap="round" stroke-linejoin="round"/>
<path d="M181.333 170.667C187.224 170.667 192 165.891 192 160C192 154.109 187.224 149.333 181.333 149.333C175.442 149.333 170.667 154.109 170.667 160C170.667 165.891 175.442 170.667 181.333 170.667Z" fill="#22C55E" stroke="#22C55E" stroke-width="42.6667" stroke-linecap="round" stroke-linejoin="round"/>
<path d="M138.667 277.333C144.558 277.333 149.333 272.558 149.333 266.667C149.333 260.776 144.558 256 138.667 256C132.776 256 128 260.776 128 266.667C128 272.558 132.776 277.333 138.667 277.333Z" fill="#3B82F6" stroke="#3B82F6" stroke-width="42.6667" stroke-linecap="round" stroke-linejoin="round"/>
<path d="M256 42.6665C138.667 42.6665 42.6666 138.666 42.6666 256C42.6666 373.333 138.667 469.333 256 469.333C275.755 469.333 291.157 453.418 291.157 433.322C291.157 424 287.317 415.509 281.835 409.322C275.648 403.157 272.491 395.413 272.491 385.322C272.41 380.627 273.275 375.964 275.035 371.61C276.794 367.256 279.412 363.301 282.733 359.981C286.053 356.66 290.008 354.042 294.362 352.282C298.716 350.523 303.379 349.658 308.075 349.738H350.656C415.744 349.738 469.163 296.341 469.163 231.253C468.587 128.256 372.501 42.6665 256 42.6665Z" stroke="#FACC15" stroke-width="42.6667" stroke-linecap="round" stroke-linejoin="round"/>
</g>
<defs>
<clipPath id="clip0_727_1553">
<rect width="512" height="512" fill="white"/>
</clipPath>
</defs>
</svg>
